<?xml version="1.0" encoding="UTF-8"?>
<svg width="959" height="593" viewBox="0 0 959 593" xmlns="http://www.w3.org/2000/svg">
  <path d="M848 73v4l-4 1-3 5-6 1h-5l-3-3h-2l-2-3-7-3-3-6-2-1-2-3-4-1-3-5-4-2-2-4h3l3-3 6-3 5-1 4-4 3 1 6 4h4l4 3 5 1 4 2 2 4 3 2-1 3 2 2 1 4 1 2z m-162-73l1 3-1 1-4-2v-2h4z m156 7l-1 2-5-1-3-1v-2l3-1 4 1 2 2z m-102 196l3 1 4 2 3 4 3-2 2 1 3 1h4l3 5 0 3 0 4-3 3 0 3-2 3-4 3-3 2-3-1-3-3 1-3-1-4-2-3-2-2-4-1-3 1-3-2-2-3 0-3 2-3 3-2 2-3z m-2-196l-2 1 1-3 1-1v3z m33 133l-2 1-1-2 3-1v2z m-42-128l-2 1-1-2 3-1v2z m-35-5l-2 2-2-2h4z m120 4l-2 1v-2h2z" fill="#D3D3D3"/>
  <!-- More paths for other states would go here -->
</svg>
